<mxfile host="app.diagrams.net" modified="2024-01-17T15:29:47.723Z" agent="Mozilla/5.0 (X11; Linux x86_64; rv:121.0) Gecko/20100101 Firefox/121.0" etag="vf_GIRUXAIcPuZ8yKYei" version="22.1.21" type="device">
  <diagram name="Page-1" id="13e1069c-82ec-6db2-03f1-153e76fe0fe0">
    <mxGraphModel dx="989" dy="611" grid="1" gridSize="10" guides="1" tooltips="1" connect="1" arrows="1" fold="1" page="1" pageScale="1" pageWidth="1100" pageHeight="850" background="none" math="0" shadow="0">
      <root>
        <mxCell id="0" />
        <mxCell id="1" parent="0" />
        <mxCell id="7baba1c4bc27f4b0-2" value=":View" style="shape=umlLifeline;perimeter=lifelinePerimeter;whiteSpace=wrap;html=1;container=1;collapsible=0;recursiveResize=0;outlineConnect=0;rounded=1;shadow=0;comic=0;labelBackgroundColor=none;strokeWidth=1;fontFamily=Verdana;fontSize=12;align=center;" parent="1" vertex="1">
          <mxGeometry x="240" y="80" width="100" height="1210" as="geometry" />
        </mxCell>
        <mxCell id="otqbMDXwxpX56CCuv02B-2" value="select User()" style="html=1;verticalAlign=bottom;endArrow=block;labelBackgroundColor=none;fontFamily=Verdana;fontSize=12;edgeStyle=elbowEdgeStyle;elbow=vertical;" parent="7baba1c4bc27f4b0-2" edge="1">
          <mxGeometry relative="1" as="geometry">
            <mxPoint x="-93.8" y="100" as="sourcePoint" />
            <mxPoint x="50.5" y="100" as="targetPoint" />
            <Array as="points">
              <mxPoint x="6.7" y="100" />
            </Array>
          </mxGeometry>
        </mxCell>
        <mxCell id="otqbMDXwxpX56CCuv02B-7" value="input_message(msg)" style="html=1;verticalAlign=bottom;endArrow=block;entryX=0.493;entryY=0.145;labelBackgroundColor=none;fontFamily=Verdana;fontSize=12;edgeStyle=elbowEdgeStyle;elbow=horizontal;entryDx=0;entryDy=0;entryPerimeter=0;" parent="7baba1c4bc27f4b0-2" edge="1">
          <mxGeometry relative="1" as="geometry">
            <mxPoint x="-90" y="260" as="sourcePoint" />
            <mxPoint x="49" y="260" as="targetPoint" />
          </mxGeometry>
        </mxCell>
        <mxCell id="3jXQpGT9RrCCJAdBL0ck-3" value="" style="html=1;points=[[0,0,0,0,5],[0,1,0,0,-5],[1,0,0,0,5],[1,1,0,0,-5]];perimeter=orthogonalPerimeter;outlineConnect=0;targetShapes=umlLifeline;portConstraint=eastwest;newEdgeStyle={&quot;curved&quot;:0,&quot;rounded&quot;:0};" vertex="1" parent="7baba1c4bc27f4b0-2">
          <mxGeometry x="45" y="330" width="10" height="80" as="geometry" />
        </mxCell>
        <mxCell id="7baba1c4bc27f4b0-3" value=":Controller Messagerie" style="shape=umlLifeline;perimeter=lifelinePerimeter;whiteSpace=wrap;html=1;container=1;collapsible=0;recursiveResize=0;outlineConnect=0;rounded=1;shadow=0;comic=0;labelBackgroundColor=none;strokeWidth=1;fontFamily=Verdana;fontSize=12;align=center;" parent="1" vertex="1">
          <mxGeometry x="400" y="80" width="100" height="1210" as="geometry" />
        </mxCell>
        <mxCell id="otqbMDXwxpX56CCuv02B-9" value="&lt;div&gt;send_message&lt;/div&gt;&lt;div&gt;(msg,ip,time)&lt;/div&gt;" style="html=1;verticalAlign=bottom;endArrow=block;labelBackgroundColor=none;fontFamily=Verdana;fontSize=12;edgeStyle=elbowEdgeStyle;elbow=horizontal;" parent="7baba1c4bc27f4b0-3" edge="1">
          <mxGeometry x="0.0031" relative="1" as="geometry">
            <mxPoint x="-106" y="347" as="sourcePoint" />
            <mxPoint x="44" y="347" as="targetPoint" />
            <Array as="points">
              <mxPoint x="-6" y="347" />
            </Array>
            <mxPoint as="offset" />
          </mxGeometry>
        </mxCell>
        <mxCell id="3jXQpGT9RrCCJAdBL0ck-5" value="" style="html=1;points=[[0,0,0,0,5],[0,1,0,0,-5],[1,0,0,0,5],[1,1,0,0,-5]];perimeter=orthogonalPerimeter;outlineConnect=0;targetShapes=umlLifeline;portConstraint=eastwest;newEdgeStyle={&quot;curved&quot;:0,&quot;rounded&quot;:0};" vertex="1" parent="7baba1c4bc27f4b0-3">
          <mxGeometry x="45" y="330" width="10" height="80" as="geometry" />
        </mxCell>
        <mxCell id="7baba1c4bc27f4b0-5" value=":TCP sender" style="shape=umlLifeline;perimeter=lifelinePerimeter;whiteSpace=wrap;html=1;container=1;collapsible=0;recursiveResize=0;outlineConnect=0;rounded=1;shadow=0;comic=0;labelBackgroundColor=none;strokeWidth=1;fontFamily=Verdana;fontSize=12;align=center;" parent="1" vertex="1">
          <mxGeometry x="680" y="80" width="100" height="1210" as="geometry" />
        </mxCell>
        <mxCell id="3jXQpGT9RrCCJAdBL0ck-17" value="envoyermessage(ip,port,msg)" style="html=1;verticalAlign=bottom;endArrow=block;labelBackgroundColor=none;fontFamily=Verdana;fontSize=12;edgeStyle=elbowEdgeStyle;elbow=horizontal;" edge="1" parent="7baba1c4bc27f4b0-5">
          <mxGeometry x="0.0556" relative="1" as="geometry">
            <mxPoint x="54.99999999999977" y="369.66" as="sourcePoint" />
            <mxPoint x="234.99999999999977" y="369.66" as="targetPoint" />
            <Array as="points" />
            <mxPoint as="offset" />
          </mxGeometry>
        </mxCell>
        <mxCell id="7baba1c4bc27f4b0-8" value="user:User" style="shape=umlLifeline;perimeter=lifelinePerimeter;whiteSpace=wrap;html=1;container=1;collapsible=0;recursiveResize=0;outlineConnect=0;rounded=1;shadow=0;comic=0;labelBackgroundColor=none;strokeWidth=1;fontFamily=Verdana;fontSize=12;align=center;" parent="1" vertex="1">
          <mxGeometry x="100" y="80" width="100" height="1210" as="geometry" />
        </mxCell>
        <mxCell id="otqbMDXwxpX56CCuv02B-8" value="appuyer le boutton envoyer" style="html=1;verticalAlign=bottom;endArrow=block;entryX=0.493;entryY=0.145;labelBackgroundColor=none;fontFamily=Verdana;fontSize=12;edgeStyle=elbowEdgeStyle;elbow=horizontal;entryDx=0;entryDy=0;entryPerimeter=0;" parent="7baba1c4bc27f4b0-8" edge="1">
          <mxGeometry relative="1" as="geometry">
            <mxPoint x="50" y="313" as="sourcePoint" />
            <mxPoint x="189" y="313" as="targetPoint" />
          </mxGeometry>
        </mxCell>
        <mxCell id="otqbMDXwxpX56CCuv02B-5" style="edgeStyle=orthogonalEdgeStyle;rounded=0;orthogonalLoop=1;jettySize=auto;html=1;" parent="1" edge="1">
          <mxGeometry relative="1" as="geometry">
            <mxPoint x="291" y="230" as="sourcePoint" />
            <mxPoint x="291" y="280" as="targetPoint" />
            <Array as="points">
              <mxPoint x="362.5" y="230" />
              <mxPoint x="362.5" y="280" />
            </Array>
          </mxGeometry>
        </mxCell>
        <mxCell id="otqbMDXwxpX56CCuv02B-6" value="&lt;font face=&quot;Verdana&quot; style=&quot;font-size: 12px;&quot;&gt;page messagerie(user,contact choisi)&lt;/font&gt;" style="edgeLabel;html=1;align=center;verticalAlign=middle;resizable=0;points=[];" parent="otqbMDXwxpX56CCuv02B-5" vertex="1" connectable="0">
          <mxGeometry x="-0.4803" relative="1" as="geometry">
            <mxPoint y="-21" as="offset" />
          </mxGeometry>
        </mxCell>
        <mxCell id="3jXQpGT9RrCCJAdBL0ck-2" value=":Base De Donnee " style="shape=umlLifeline;perimeter=lifelinePerimeter;whiteSpace=wrap;html=1;container=1;collapsible=0;recursiveResize=0;outlineConnect=0;rounded=1;shadow=0;comic=0;labelBackgroundColor=none;strokeWidth=1;fontFamily=Verdana;fontSize=12;align=center;" vertex="1" parent="1">
          <mxGeometry x="550" y="80" width="100" height="1210" as="geometry" />
        </mxCell>
        <mxCell id="3jXQpGT9RrCCJAdBL0ck-6" value="updatehistory()" style="html=1;verticalAlign=bottom;endArrow=block;labelBackgroundColor=none;fontFamily=Verdana;fontSize=12;edgeStyle=elbowEdgeStyle;elbow=horizontal;" edge="1" parent="1" source="3jXQpGT9RrCCJAdBL0ck-5" target="3jXQpGT9RrCCJAdBL0ck-3">
          <mxGeometry x="0.0031" relative="1" as="geometry">
            <mxPoint x="285.5" y="490" as="sourcePoint" />
            <mxPoint x="445" y="490" as="targetPoint" />
            <Array as="points">
              <mxPoint x="385.5" y="490" />
            </Array>
            <mxPoint as="offset" />
          </mxGeometry>
        </mxCell>
        <mxCell id="3jXQpGT9RrCCJAdBL0ck-11" value="send_message(ip,port,msg)" style="html=1;verticalAlign=bottom;endArrow=block;labelBackgroundColor=none;fontFamily=Verdana;fontSize=12;edgeStyle=elbowEdgeStyle;elbow=horizontal;" edge="1" parent="1">
          <mxGeometry x="0.0031" relative="1" as="geometry">
            <mxPoint x="456.9999999999998" y="429" as="sourcePoint" />
            <mxPoint x="730" y="429" as="targetPoint" />
            <Array as="points">
              <mxPoint x="547" y="429" />
            </Array>
            <mxPoint as="offset" />
          </mxGeometry>
        </mxCell>
        <mxCell id="3jXQpGT9RrCCJAdBL0ck-10" value="&lt;div&gt;addMsgData&lt;/div&gt;&lt;div&gt;(sender,recever,time,msg)&lt;/div&gt;" style="html=1;verticalAlign=bottom;endArrow=block;labelBackgroundColor=none;fontFamily=Verdana;fontSize=12;edgeStyle=elbowEdgeStyle;elbow=horizontal;" edge="1" parent="1">
          <mxGeometry x="0.0031" relative="1" as="geometry">
            <mxPoint x="454.9999999999998" y="470" as="sourcePoint" />
            <mxPoint x="594.9999999999998" y="470" as="targetPoint" />
            <Array as="points">
              <mxPoint x="552" y="470" />
            </Array>
            <mxPoint as="offset" />
          </mxGeometry>
        </mxCell>
        <mxCell id="3jXQpGT9RrCCJAdBL0ck-16" value="&lt;div&gt;d&#39;autre user:&lt;/div&gt;&lt;div&gt;TCP recever&lt;/div&gt;" style="shape=umlLifeline;perimeter=lifelinePerimeter;whiteSpace=wrap;html=1;container=1;collapsible=0;recursiveResize=0;outlineConnect=0;rounded=1;shadow=0;comic=0;labelBackgroundColor=none;strokeWidth=1;fontFamily=Verdana;fontSize=12;align=center;" vertex="1" parent="1">
          <mxGeometry x="870" y="80" width="100" height="1210" as="geometry" />
        </mxCell>
      </root>
    </mxGraphModel>
  </diagram>
</mxfile>
